<?xml version="1.0" encoding="UTF-8"?>
<!DOCTYPE svg PUBLIC "-//W3C//DTD SVG 1.1//EN" "http://www.w3.org/Graphics/SVG/1.1/DTD/svg11.dtd">
<!-- Creator: CorelDRAW X7 -->
<svg xmlns="http://www.w3.org/2000/svg" xml:space="preserve" width="9.9376mm" height="12.23mm" version="1.1" style="shape-rendering:geometricPrecision; text-rendering:geometricPrecision; image-rendering:optimizeQuality; fill-rule:evenodd; clip-rule:evenodd"
viewBox="0 0 994 1223"
 xmlns:xlink="http://www.w3.org/1999/xlink">
 <defs>
  <style type="text/css">
   <![CDATA[
    .fil0 {fill:black}
   ]]>
  </style>
 </defs>
 <g id="Capa_x0020_1">
  <metadata id="CorelCorpID_0Corel-Layer"/>
  <g id="_855841184">
   <path class="fil0" d="M573 153c-8,-1 -20,4 -27,12 -100,103 -214,220 -239,240 -12,7 -20,20 -20,34 0,10 4,20 10,27l0 0c0,0 0,0 0,0l0 0c1,0 1,1 1,1l229 229c8,7 17,11 27,11 10,0 20,-4 27,-11l249 -249c15,-15 15,-39 0,-54l-230 -229c-7,-7 -17,-11 -27,-11z"/>
   <path class="fil0" d="M983 393c-15,-15 -40,-15 -54,0l-432 432 -328 -328 431 -432c15,-15 15,-39 0,-54 -14,-15 -39,-15 -54,0l-458 459c-15,15 -15,39 0,54l49 49 -126 126c-7,7 -11,17 -11,27l0 459c0,15 9,29 24,35 4,2 9,3 14,3 10,0 20,-4 27,-11l355 -355 50 49c7,7 17,11 27,11 10,0 19,-4 27,-11l459 -459c14,-15 14,-39 0,-54z"/>
  </g>
 </g>
</svg>
