<?xml version="1.0" encoding="UTF-8"?>
<!DOCTYPE svg PUBLIC "-//W3C//DTD SVG 1.1//EN" "http://www.w3.org/Graphics/SVG/1.1/DTD/svg11.dtd">
<!-- Creator: CorelDRAW X7 -->
<svg xmlns="http://www.w3.org/2000/svg" xml:space="preserve" width="12.23mm" height="12.23mm" version="1.1" style="shape-rendering:geometricPrecision; text-rendering:geometricPrecision; image-rendering:optimizeQuality; fill-rule:evenodd; clip-rule:evenodd"
viewBox="0 0 1223 1223"
 xmlns:xlink="http://www.w3.org/1999/xlink">
 <defs>
  <style type="text/css">
   <![CDATA[
    .fil0 {fill:black}
   ]]>
  </style>
 </defs>
 <g id="Capa_x0020_1">
  <metadata id="CorelCorpID_0Corel-Layer"/>
  <path class="fil0" d="M1029 286l0 -286 -835 0 0 286c-109,5 -194,95 -194,203l0 489 173 0 0 -81 -91 0 0 -408c0,-67 54,-122 122,-122l815 0c68,0 122,55 122,122l0 408 -112 0 0 81 194 0 0 -489c0,-108 -85,-198 -194,-203l0 0zm112 203l-866 0 0 -407 673 0 193 407z"/>
  <rect class="fil0" x="968" y="469" width="81.5337" height="81.5337"/>
  <path class="fil0" d="M255 632l-102 0 0 81 102 0 0 510 693 0 0 -510 102 0 0 -81 -795 0zm611 509l-530 0 0 -428 530 0 0 428z"/>
 </g>
</svg>
